{
  "accessors": [
    {
      "bufferView": 2,
      "componentType": 5126,
      "count": 795,
      "max": [
        10.629837989807129,
        197.57620239257813,
        9.857930183410645
      ],
      "min": [
        -10.629837989807129,
        98.9033203125,
        -8.088120460510254
      ],
      "type": "VEC3"
    },
    {
      "bufferView": 2,
      "byteOffset": 9540,
      "componentType": 5126,
      "count": 795,
      "max": [
        1.0,
        1.0,
        1.0
      ],
      "min": [
        -1.0,
        -1.0,
        -1.0
      ],
      "type": "VEC3"
    },
    {
      "bufferView": 3,
      "componentType": 5126,
      "count": 795,
      "max": [
        1.0,
        1.0,
        1.0,
        1.0
      ],
      "min": [
        -1.0,
        -1.0,
        -1.0,
        1.0
      ],
      "type": "VEC4"
    },
    {
      "bufferView": 1,
      "componentType": 5126,
      "count": 795,
      "max": [
        0.9788569808006287,
        0.9944900274276733
      ],
      "min": [
        0.005508000031113625,
        0.005506000015884638
      ],
      "type": "VEC2"
    },
    {
      "bufferView": 1,
      "byteOffset": 6360,
      "componentType": 5126,
      "count": 795,
      "max": [
        0.9762510061264038,
        0.8909590244293213
      ],
      "min": [
        0.02136100083589554,
        0.0213600005954504
      ],
      "type": "VEC2"
    },
    {
      "bufferView": 0,
      "componentType": 5125,
      "count": 2304,
      "type": "SCALAR"
    },
    {
      "bufferView": 2,
      "byteOffset": 19080,
      "componentType": 5126,
      "count": 50,
      "max": [
        16.577241897583008,
        105.55006408691406,
        16.577241897583008
      ],
      "min": [
        -16.577241897583008,
        7.999999979801942e-06,
        -16.577241897583008
      ],
      "type": "VEC3"
    },
    {
      "bufferView": 2,
      "byteOffset": 19680,
      "componentType": 5126,
      "count": 50,
      "max": [
        1.0,
        1.0,
        1.0
      ],
      "min": [
        -1.0,
        -1.0,
        -1.0
      ],
      "type": "VEC3"
    },
    {
      "bufferView": 3,
      "byteOffset": 12720,
      "componentType": 5126,
      "count": 50,
      "max": [
        1.0,
        1.0,
        1.0,
        1.0
      ],
      "min": [
        -1.0,
        -1.0,
        -1.0,
        1.0
      ],
      "type": "VEC4"
    },
    {
      "bufferView": 1,
      "byteOffset": 12720,
      "componentType": 5126,
      "count": 50,
      "max": [
        0.9911019802093506,
        0.9798610210418701
      ],
      "min": [
        0.005510000046342611,
        0.005510000046342611
      ],
      "type": "VEC2"
    },
    {
      "bufferView": 1,
      "byteOffset": 13120,
      "componentType": 5126,
      "count": 50,
      "max": [
        0.900297999382019,
        0.9234849810600281
      ],
      "min": [
        0.021364999935030937,
        0.021364999935030937
      ],
      "type": "VEC2"
    },
    {
      "bufferView": 0,
      "byteOffset": 9216,
      "componentType": 5125,
      "count": 108,
      "type": "SCALAR"
    },
    {
      "bufferView": 2,
      "byteOffset": 20280,
      "componentType": 5126,
      "count": 627,
      "max": [
        7.293459892272949,
        190.8765869140625,
        11.991522789001465
      ],
      "min": [
        -7.293459892272949,
        135.4139862060547,
        8.037575721740723
      ],
      "type": "VEC3"
    },
    {
      "bufferView": 2,
      "byteOffset": 27804,
      "componentType": 5126,
      "count": 627,
      "max": [
        0.9990027546882629,
        0.9990074634552002,
        1.0
      ],
      "min": [
        -0.9990071058273315,
        -0.9990164637565613,
        0.027368996292352676
      ],
      "type": "VEC3"
    },
    {
      "bufferView": 3,
      "byteOffset": 13520,
      "componentType": 5126,
      "count": 627,
      "max": [
        0.9959768652915955,
        0.531541645526886,
        0.998355507850647,
        1.0
      ],
      "min": [
        -0.5317137837409973,
        -0.9959775805473328,
        -0.9983614683151245,
        1.0
      ],
      "type": "VEC4"
    },
    {
      "bufferView": 1,
      "byteOffset": 13520,
      "componentType": 5126,
      "count": 627,
      "max": [
        0.4777730107307434,
        0.6329560279846191
      ],
      "min": [
        0.36563199758529663,
        0.21141299605369568
      ],
      "type": "VEC2"
    },
    {
      "bufferView": 1,
      "byteOffset": 18536,
      "componentType": 5126,
      "count": 627,
      "max": [
        0.9786360263824463,
        0.9756460189819336
      ],
      "min": [
        0.5765439867973328,
        0.21472600102424622
      ],
      "type": "VEC2"
    },
    {
      "bufferView": 0,
      "byteOffset": 9648,
      "componentType": 5125,
      "count": 3456,
      "type": "SCALAR"
    },
    {
      "bufferView": 2,
      "byteOffset": 35328,
      "componentType": 5126,
      "count": 20,
      "max": [
        7.359155178070068,
        128.2900848388672,
        7.4415669441223145
      ],
      "min": [
        -7.359155178070068,
        112.83849334716797,
        6.884415149688721
      ],
      "type": "VEC3"
    },
    {
      "bufferView": 2,
      "byteOffset": 35568,
      "componentType": 5126,
      "count": 20,
      "max": [
        1.0,
        1.0,
        1.0
      ],
      "min": [
        -1.0,
        -1.0,
        0.0
      ],
      "type": "VEC3"
    },
    {
      "bufferView": 3,
      "byteOffset": 23552,
      "componentType": 5126,
      "count": 20,
      "max": [
        1.0,
        0.0,
        0.0,
        1.0
      ],
      "min": [
        0.0,
        0.0,
        -1.0,
        1.0
      ],
      "type": "VEC4"
    },
    {
      "bufferView": 1,
      "byteOffset": 23552,
      "componentType": 5126,
      "count": 20,
      "max": [
        0.9941669702529907,
        0.6158769726753235
      ],
      "min": [
        0.4563260078430176,
        0.005504999775439501
      ],
      "type": "VEC2"
    },
    {
      "bufferView": 1,
      "byteOffset": 23712,
      "componentType": 5126,
      "count": 20,
      "max": [
        0.9750940203666687,
        0.9410589933395386
      ],
      "min": [
        0.0213639996945858,
        0.4508250057697296
      ],
      "type": "VEC2"
    },
    {
      "bufferView": 0,
      "byteOffset": 23472,
      "componentType": 5125,
      "count": 30,
      "type": "SCALAR"
    }
  ],
  "asset": {
    "extras": {
      "author": "Xlay3D (https://sketchfab.com/Xlay3D)",
      "license": "CC-BY-4.0 (http://creativecommons.org/licenses/by/4.0/)",
      "source": "https://sketchfab.com/3d-models/subway-traffic-light-gameready-45468d0083e94b05971ed2c7c47027b6",
      "title": "Subway Traffic Light // GameReady"
    },
    "generator": "Sketchfab-12.65.0",
    "version": "2.0"
  },
  "bufferViews": [
    {
      "buffer": 0,
      "byteLength": 23592,
      "name": "floatBufferViews",
      "target": 34963
    },
    {
      "buffer": 0,
      "byteLength": 23872,
      "byteOffset": 23592,
      "byteStride": 8,
      "name": "floatBufferViews",
      "target": 34962
    },
    {
      "buffer": 0,
      "byteLength": 35808,
      "byteOffset": 47464,
      "byteStride": 12,
      "name": "floatBufferViews",
      "target": 34962
    },
    {
      "buffer": 0,
      "byteLength": 23872,
      "byteOffset": 83272,
      "byteStride": 16,
      "name": "floatBufferViews",
      "target": 34962
    }
  ],
  "buffers": [
    {
      "byteLength": 107144,
      "uri": "scene.bin"
    }
  ],
  "images": [
    {
      "uri": "textures/Semaforo_baseColor.jpeg"
    },
    {
      "uri": "textures/Semaforo_metallicRoughness.png"
    },
    {
      "uri": "textures/Semaforo_emissive.jpeg"
    },
    {
      "uri": "textures/Semaforo_normal.png"
    }
  ],
  "materials": [
    {
      "doubleSided": true,
      "emissiveFactor": [
        1.0,
        1.0,
        1.0
      ],
      "emissiveTexture": {
        "index": 2
      },
      "name": "Semaforo",
      "normalTexture": {
        "index": 3
      },
      "occlusionTexture": {
        "index": 1
      },
      "pbrMetallicRoughness": {
        "baseColorTexture": {
          "index": 0
        },
        "metallicRoughnessTexture": {
          "index": 1
        }
      }
    }
  ],
  "meshes": [
    {
      "name": "defaultMaterial",
      "primitives": [
        {
          "attributes": {
            "NORMAL": 1,
            "POSITION": 0,
            "TANGENT": 2,
            "TEXCOORD_0": 3,
            "TEXCOORD_1": 4
          },
          "indices": 5,
          "material": 0,
          "mode": 4
        }
      ]
    },
    {
      "name": "defaultMaterial",
      "primitives": [
        {
          "attributes": {
            "NORMAL": 7,
            "POSITION": 6,
            "TANGENT": 8,
            "TEXCOORD_0": 9,
            "TEXCOORD_1": 10
          },
          "indices": 11,
          "material": 0,
          "mode": 4
        }
      ]
    },
    {
      "name": "defaultMaterial",
      "primitives": [
        {
          "attributes": {
            "NORMAL": 13,
            "POSITION": 12,
            "TANGENT": 14,
            "TEXCOORD_0": 15,
            "TEXCOORD_1": 16
          },
          "indices": 17,
          "material": 0,
          "mode": 4
        }
      ]
    },
    {
      "name": "defaultMaterial",
      "primitives": [
        {
          "attributes": {
            "NORMAL": 19,
            "POSITION": 18,
            "TANGENT": 20,
            "TEXCOORD_0": 21,
            "TEXCOORD_1": 22
          },
          "indices": 23,
          "material": 0,
          "mode": 4
        }
      ]
    }
  ],
  "nodes": [
    {
      "children": [
        1
      ],
      "matrix": [
        1.0,
        0.0,
        0.0,
        0.0,
        0.0,
        2.220446049250313e-16,
        -1.0,
        0.0,
        0.0,
        1.0,
        2.220446049250313e-16,
        0.0,
        0.0,
        0.0,
        0.0,
        1.0
      ],
      "name": "Sketchfab_model"
    },
    {
      "children": [
        2,
        4,
        6,
        8
      ],
      "matrix": [
        1.0,
        0.0,
        0.0,
        0.0,
        0.0,
        -4.371139006309477e-08,
        0.999999999999999,
        0.0,
        0.0,
        -0.999999999999999,
        -4.371139006309477e-08,
        0.0,
        0.0,
        0.0,
        0.0,
        1.0
      ],
      "name": "Collada visual scene group"
    },
    {
      "children": [
        3
      ],
      "name": "Semaforo_LP.001"
    },
    {
      "mesh": 0,
      "name": "defaultMaterial"
    },
    {
      "children": [
        5
      ],
      "name": "PaloSemaforo_LP.001"
    },
    {
      "mesh": 1,
      "name": "defaultMaterial"
    },
    {
      "children": [
        7
      ],
      "name": "LucesSemaforo_LP.001"
    },
    {
      "mesh": 2,
      "name": "defaultMaterial"
    },
    {
      "children": [
        9
      ],
      "name": "CartelSemaforo_LP.001"
    },
    {
      "mesh": 3,
      "name": "defaultMaterial"
    }
  ],
  "samplers": [
    {
      "magFilter": 9729,
      "minFilter": 9987,
      "wrapS": 10497,
      "wrapT": 10497
    }
  ],
  "scene": 0,
  "scenes": [
    {
      "name": "Sketchfab_Scene",
      "nodes": [
        0
      ]
    }
  ],
  "textures": [
    {
      "sampler": 0,
      "source": 0
    },
    {
      "sampler": 0,
      "source": 1
    },
    {
      "sampler": 0,
      "source": 2
    },
    {
      "sampler": 0,
      "source": 3
    }
  ]
}
